<?xml version="1.0" standalone="no"?>
<!DOCTYPE svg PUBLIC "-//W3C//DTD SVG 20010904//EN"
 "http://www.w3.org/TR/2001/REC-SVG-20010904/DTD/svg10.dtd">
<svg version="1.0" xmlns="http://www.w3.org/2000/svg"
 width="1238.000000pt" height="1263.000000pt" viewBox="0 0 1238.000000 1263.000000"
 preserveAspectRatio="xMidYMid meet">
<metadata>
Created by potrace 1.16, written by Peter Selinger 2001-2019
</metadata>
<g transform="translate(0.000000,1263.000000) scale(0.100000,-0.100000)"
fill="#FFD700" stroke="none">
<path d="M6295 12104 c-1222 -58 -2429 -399 -3380 -955 -1333 -779 -2155
-1974 -2354 -3421 -39 -281 -46 -398 -46 -743 0 -344 7 -448 46 -735 91 -656
310 -1337 640 -1985 879 -1727 2461 -3091 4129 -3559 735 -206 1504 -236 2300
-90 1201 221 2276 900 3050 1929 667 886 1058 1952 1165 3175 34 390 30 933
-11 1345 -167 1691 -915 3096 -2139 4015 -242 182 -482 328 -785 479 -590 293
-1187 461 -1870 526 -163 15 -590 26 -745 19z m1005 -989 c0 -9 -47 -39 -121
-75 -465 -234 -890 -602 -1125 -975 l-37 -60 44 38 c351 299 792 511 1313 632
140 32 185 35 168 9 -4 -6 -43 -19 -87 -28 -587 -125 -1106 -381 -1439 -710
-56 -56 -81 -74 -87 -65 -25 41 177 349 352 534 172 183 332 319 534 455 160
108 437 260 473 260 6 0 12 -7 12 -15z m1348 -139 c197 -100 539 -467 712
-763 28 -47 40 -79 40 -106 l0 -39 -37 5 c-21 2 -72 12 -113 22 -199 45 -377
-25 -463 -184 -74 -134 -106 -368 -87 -633 33 -480 134 -945 455 -2088 157
-560 201 -725 254 -960 82 -365 126 -610 158 -885 21 -189 24 -669 5 -825 -21
-168 -69 -390 -112 -523 -49 -148 -166 -389 -250 -514 -284 -425 -737 -740
-1345 -936 -366 -118 -682 -165 -1045 -154 -368 11 -681 80 -1025 226 -624
265 -1239 810 -1648 1461 -148 234 -214 384 -466 1054 -159 420 -274 712 -374
946 -451 1053 -853 1589 -1262 1686 -137 32 -287 3 -430 -83 -69 -42 -80 -52
-80 -76 1 -20 -4 -27 -18 -27 -15 0 -18 5 -13 25 4 14 -3 60 -14 102 -85 324
-4 648 217 865 59 58 97 69 136 38 37 -29 37 -87 0 -166 -52 -114 -28 -258 61
-366 36 -45 63 -62 231 -147 1170 -594 2375 -839 3449 -701 193 25 332 52 487
94 121 34 131 39 489 246 712 414 923 555 1123 749 124 120 190 201 310 377
105 155 435 700 493 815 159 317 237 673 205 939 -20 164 -58 289 -108 358
-36 48 -53 96 -53 147 0 45 0 45 35 45 20 0 57 -11 83 -24z m-1080 -789 c9 -6
10 -13 3 -20 -7 -9 -48 -10 -158 -3 -243 14 -562 -11 -811 -65 -191 -41 -449
-139 -584 -220 -39 -24 -60 -20 -42 8 16 25 177 108 300 154 187 71 472 133
704 153 83 7 575 1 588 -7z m-4009 -387 c367 -22 677 -95 937 -220 94 -45 126
-71 104 -85 -4 -3 -39 1 -77 9 -420 89 -991 8 -1552 -220 -129 -52 -184 -63
-150 -29 19 20 225 103 379 154 376 123 657 167 1027 159 248 -5 248 -5 29 67
-414 136 -870 169 -1358 98 -116 -17 -150 -13 -115 12 30 22 310 53 577 63 19
1 109 -3 199 -8z m1016 -330 c0 -10 -12 -16 -35 -17 -297 -20 -682 -159 -1017
-367 -98 -60 -301 -206 -367 -262 -42 -36 -66 -43 -66 -20 0 18 139 129 285
228 353 240 703 391 1030 442 112 18 170 17 170 -4z"/>
<path d="M6590 3150 c-238 -33 -390 -92 -390 -151 0 -22 47 -54 100 -69 179
-51 624 -19 790 56 68 31 90 51 90 80 0 29 -31 51 -102 71 -64 18 -389 26
-488 13z"/>
</g>
</svg>
